# xmcd
#
# Track frame offsets:
#	150
#	23005
#	43575
#	63832
#	82400
#	110907
#	131642
#	150342
#	167840
#	185580
#
# Disc length: 2743 seconds
#
# Revision: 2
# Processed by: cddbd v1.4PL0 Copyright (c) Steve Scherf et al.
# Submitted via: audiograbber 1.81.02
#
DISCID=840ab50a
DTITLE=Various Artist - Hot Rockin' Blues
DYEAR=1900
DGENRE=
TTITLE0=Albert Collins - Iceman
TTITLE1=Gary Moore - King of the Blues
TTITLE2=Buddy Guy - Damn Right, I've Got the Blues
TTITLE3=Lonnie Mack - Hound Dog Man
TTITLE4=Johnny Winter - Life Is Hard
TTITLE5=The Fabulous Thunderbirds - Powerful Stuff
TTITLE6=The Robert Cray Band - Smoking Gun
TTITLE7=Tinsley Ellis - Can't You Lie
TTITLE8=Omar and The Howlers - Hard Times in the Land of Plenty
TTITLE9=Jeff Healey Band - Evil and Here To Stay
EXTD=
EXTT0=
EXTT1=
EXTT2=
EXTT3=
EXTT4=
EXTT5=
EXTT6=
EXTT7=
EXTT8=
EXTT9=
PLAYORDER=
